<svg width="60" height="60" viewBox="0 0 60 60" fill="none" xmlns="http://www.w3.org/2000/svg">
<g clip-path="url(#clip0)">
<path d="M53.25 30C53.25 35.75 51.375 40.8125 47.625 45.1875C43.875 49.5 39.2188 52.0938 33.6562 52.9688V36.75H39.0938L40.125 30H33.6562V25.5938C33.6562 23.2188 34.9062 22.0312 37.4062 22.0312H40.3125V16.3125C38.5625 16 36.8438 15.8438 35.1562 15.8438C33.3438 15.8438 31.7812 16.1875 30.4688 16.875C29.2188 17.5625 28.2188 18.5938 27.4688 19.9688C26.7188 21.3438 26.3438 22.9688 26.3438 24.8438V30H20.4375V36.75H26.3438V52.9688C20.7812 52.0938 16.125 49.5 12.375 45.1875C8.625 40.8125 6.75 35.75 6.75 30C6.75 23.5625 9 18.0938 13.5 13.5938C18.0625 9.03125 23.5625 6.75 30 6.75C36.4375 6.75 41.9062 9.03125 46.4062 13.5938C50.9688 18.0938 53.25 23.5625 53.25 30Z" fill="#FFFEFE"/>
</g>
<defs>
<clipPath id="clip0">
<rect width="60" height="60" fill="white"/>
</clipPath>
</defs>
</svg>
