<svg width="60" height="60" viewBox="0 0 60 60" fill="none" xmlns="http://www.w3.org/2000/svg">
<g clip-path="url(#clip0)">
<path d="M22.4062 22.4062C24.5312 20.2812 27.0938 19.2188 30.0938 19.2188C33.0938 19.2188 35.625 20.2812 37.6875 22.4062C39.8125 24.4688 40.875 27 40.875 30C40.875 33 39.8125 35.5625 37.6875 37.6875C35.625 39.75 33.0938 40.7812 30.0938 40.7812C27.0938 40.7812 24.5312 39.75 22.4062 37.6875C20.3438 35.5625 19.3125 33 19.3125 30C19.3125 27 20.3438 24.4688 22.4062 22.4062ZM25.125 34.9688C26.5 36.3438 28.1562 37.0312 30.0938 37.0312C32.0312 37.0312 33.6875 36.3438 35.0625 34.9688C36.4375 33.5938 37.125 31.9375 37.125 30C37.125 28.0625 36.4375 26.4062 35.0625 25.0312C33.6875 23.6562 32.0312 22.9688 30.0938 22.9688C28.1562 22.9688 26.5 23.6562 25.125 25.0312C23.75 26.4062 23.0625 28.0625 23.0625 30C23.0625 31.9375 23.75 33.5938 25.125 34.9688ZM43.0312 17.0625C43.5312 17.5 43.7812 18.0625 43.7812 18.75C43.7812 19.4375 43.5312 20.0312 43.0312 20.5312C42.5938 21.0312 42.0312 21.2812 41.3438 21.2812C40.6562 21.2812 40.0625 21.0312 39.5625 20.5312C39.0625 20.0312 38.8125 19.4375 38.8125 18.75C38.8125 18.0625 39.0625 17.5 39.5625 17.0625C40.0625 16.5625 40.6562 16.3125 41.3438 16.3125C42.0312 16.3125 42.5938 16.5625 43.0312 17.0625ZM51 21.375C51.0625 23.0625 51.0938 25.9375 51.0938 30C51.0938 34.0625 51.0625 36.9375 51 38.625C50.8125 42.4375 49.6562 45.4062 47.5312 47.5312C45.4688 49.5938 42.5312 50.6875 38.7188 50.8125C37.0312 50.9375 34.1562 51 30.0938 51C26.0312 51 23.1562 50.9375 21.4688 50.8125C17.6562 50.625 14.7188 49.5 12.6562 47.4375C11.8438 46.6875 11.1875 45.8125 10.6875 44.8125C10.1875 43.8125 9.8125 42.8438 9.5625 41.9062C9.375 40.9688 9.28125 39.875 9.28125 38.625C9.15625 36.9375 9.09375 34.0625 9.09375 30C9.09375 25.9375 9.15625 23.0312 9.28125 21.2812C9.46875 17.5312 10.5938 14.625 12.6562 12.5625C14.7188 10.4375 17.6562 9.28125 21.4688 9.09375C23.1562 9.03125 26.0312 9 30.0938 9C34.1562 9 37.0312 9.03125 38.7188 9.09375C42.5312 9.28125 45.4688 10.4375 47.5312 12.5625C49.6562 14.625 50.8125 17.5625 51 21.375ZM46.5 42.375C46.6875 41.875 46.8438 41.25 46.9688 40.5C47.0938 39.6875 47.1875 38.75 47.25 37.6875C47.3125 36.5625 47.3438 35.6562 47.3438 34.9688C47.3438 34.2812 47.3438 33.3125 47.3438 32.0625C47.3438 30.8125 47.3438 30.125 47.3438 30C47.3438 29.8125 47.3438 29.125 47.3438 27.9375C47.3438 26.6875 47.3438 25.7188 47.3438 25.0312C47.3438 24.3438 47.3125 23.4688 47.25 22.4062C47.1875 21.2812 47.0938 20.3438 46.9688 19.5938C46.8438 18.7812 46.6875 18.125 46.5 17.625C45.75 15.6875 44.4062 14.3438 42.4688 13.5938C41.9688 13.4062 41.3125 13.25 40.5 13.125C39.75 13 38.8125 12.9063 37.6875 12.8438C36.625 12.7812 35.75 12.75 35.0625 12.75C34.4375 12.75 33.4688 12.75 32.1562 12.75C30.9062 12.75 30.2188 12.75 30.0938 12.75C29.9688 12.75 29.2812 12.75 28.0312 12.75C26.7812 12.75 25.8125 12.75 25.125 12.75C24.4375 12.75 23.5312 12.7812 22.4062 12.8438C21.3438 12.9063 20.4062 13 19.5938 13.125C18.8438 13.25 18.2188 13.4062 17.7188 13.5938C15.7812 14.3438 14.4375 15.6875 13.6875 17.625C13.5 18.125 13.3438 18.7812 13.2188 19.5938C13.0938 20.3438 13 21.2812 12.9375 22.4062C12.875 23.4688 12.8438 24.3438 12.8438 25.0312C12.8438 25.6562 12.8438 26.625 12.8438 27.9375C12.8438 29.1875 12.8438 29.875 12.8438 30C12.8438 30.25 12.8438 30.8438 12.8438 31.7812C12.8438 32.6562 12.8438 33.4062 12.8438 34.0312C12.8438 34.5938 12.8438 35.3438 12.8438 36.2812C12.9062 37.2188 12.9688 38.0312 13.0312 38.7188C13.0938 39.3438 13.1875 40 13.3125 40.6875C13.4375 41.375 13.5625 41.9375 13.6875 42.375C14.5 44.3125 15.8438 45.6562 17.7188 46.4062C18.2188 46.5938 18.8438 46.75 19.5938 46.875C20.4062 47 21.3438 47.0938 22.4062 47.1562C23.5312 47.2188 24.4062 47.25 25.0312 47.25C25.7188 47.25 26.6875 47.25 27.9375 47.25C29.25 47.25 29.9688 47.25 30.0938 47.25C30.2812 47.25 30.9688 47.25 32.1562 47.25C33.4062 47.25 34.375 47.25 35.0625 47.25C35.75 47.25 36.625 47.2188 37.6875 47.1562C38.8125 47.0938 39.75 47 40.5 46.875C41.3125 46.75 41.9688 46.5938 42.4688 46.4062C44.4062 45.5938 45.75 44.25 46.5 42.375Z" fill="#FFFEFE"/>
</g>
<defs>
<clipPath id="clip0">
<rect width="60" height="60" fill="white"/>
</clipPath>
</defs>
</svg>
