<svg width="60" height="60" viewBox="0 0 60 60" fill="none" xmlns="http://www.w3.org/2000/svg">
<g clip-path="url(#clip0)">
<path d="M18.375 48H9.65625V19.9688H18.375V48ZM14.0625 16.125C12.6875 16.125 11.5 15.625 10.5 14.625C9.5 13.625 9 12.4375 9 11.0625C9 9.6875 9.5 8.5 10.5 7.5C11.5 6.5 12.6875 6 14.0625 6C14.9375 6 15.75 6.21875 16.5 6.65625C17.3125 7.09375 17.9375 7.71875 18.375 8.53125C18.875 9.28125 19.125 10.125 19.125 11.0625C19.125 11.9375 18.875 12.7812 18.375 13.5938C17.9375 14.3438 17.3125 14.9688 16.5 15.4688C15.75 15.9062 14.9375 16.125 14.0625 16.125ZM51 48H42.2812V34.3125C42.2812 33.25 42.25 32.4062 42.1875 31.7812C42.125 31.0938 41.9688 30.3438 41.7188 29.5312C41.4688 28.6562 41 28 40.3125 27.5625C39.6875 27.125 38.8438 26.9062 37.7812 26.9062C35.7188 26.9062 34.3125 27.5625 33.5625 28.875C32.875 30.1875 32.5312 31.9375 32.5312 34.125V48H23.8125V19.9688H32.25V23.8125H32.3438C32.9688 22.5625 34 21.5 35.4375 20.625C36.875 19.6875 38.5938 19.2188 40.5938 19.2188C42.7188 19.2188 44.4688 19.5625 45.8438 20.25C47.2812 20.875 48.3438 21.8438 49.0312 23.1562C49.7812 24.4062 50.2812 25.7812 50.5312 27.2812C50.8438 28.7812 51 30.5625 51 32.625V48Z" fill="#FFFEFE"/>
</g>
<defs>
<clipPath id="clip0">
<rect width="60" height="60" fill="white"/>
</clipPath>
</defs>
</svg>
