<svg width="60" height="60" viewBox="0 0 60 60" fill="none" xmlns="http://www.w3.org/2000/svg">
<g clip-path="url(#clip0)">
<path d="M49.0312 20.25C49.0938 20.5 49.125 20.9062 49.125 21.4688C49.125 24.7812 48.5 28.0938 47.25 31.4062C46 34.6562 44.2188 37.6562 41.9062 40.4062C39.6562 43.0938 36.7188 45.2812 33.0938 46.9688C29.4688 48.6562 25.4688 49.5 21.0938 49.5C15.5938 49.5 10.5625 48.0312 6 45.0938C6.6875 45.1562 7.46875 45.1875 8.34375 45.1875C12.9062 45.1875 17 43.7812 20.625 40.9688C18.4375 40.9688 16.5 40.3438 14.8125 39.0938C13.1875 37.7812 12.0625 36.1562 11.4375 34.2188C12.0625 34.2812 12.6562 34.3125 13.2188 34.3125C14.0938 34.3125 14.9688 34.2188 15.8438 34.0312C14.3438 33.7188 13 33.0938 11.8125 32.1562C10.625 31.2188 9.6875 30.0938 9 28.7812C8.3125 27.4062 7.96875 25.9375 7.96875 24.375V24.1875C9.34375 25 10.8125 25.4375 12.375 25.5C9.4375 23.5 7.96875 20.75 7.96875 17.25C7.96875 15.5 8.4375 13.8438 9.375 12.2812C11.8125 15.3438 14.7812 17.7812 18.2812 19.5938C21.8438 21.4062 25.625 22.4062 29.625 22.5938C29.5 21.8438 29.4375 21.0938 29.4375 20.3438C29.4375 17.6562 30.375 15.3438 32.25 13.4062C34.1875 11.4687 36.5 10.5 39.1875 10.5C42.0625 10.5 44.4688 11.5312 46.4062 13.5938C48.6562 13.1562 50.75 12.375 52.6875 11.25C51.9375 13.5625 50.5 15.375 48.375 16.6875C50.25 16.4375 52.125 15.9062 54 15.0938C52.625 17.0938 50.9688 18.8125 49.0312 20.25Z" fill="#FFFEFE"/>
</g>
<defs>
<clipPath id="clip0">
<rect width="60" height="60" fill="white"/>
</clipPath>
</defs>
</svg>
