 <svg width="679" height="966" viewBox="0 0 679 966" fill="none" xmlns="http://www.w3.org/2000/svg">
            <path d="M224.728 435.744C644.494 649.88 823.935 580.788 702.209 861.616C580.482 1142.44 1154.82 648.67 1145.33 404.969C1135.84 161.268 1016.25 3.58521 667.845 -20.9032C319.446 -45.3916 -195.038 221.608 224.728 435.744Z" fill="#FF5C28"/>
            <path d="M387.148 498.898H282.155L282.219 496.279C282.858 491.903 288.19 460.579 310.383 450.393C334.268 439.376 366.87 462.304 366.87 462.304C366.87 462.304 380.315 469.135 387.148 498.898ZM205.487 483.602C200.186 474.821 202.55 416.831 203.38 399.238C202.23 400.61 200.091 401.696 197.951 400.867C195.396 399.876 195.524 398.152 195.524 398.152C195.524 398.152 194.311 398.471 192.491 398.917C186.296 405.528 174.29 419.13 171.799 428.008C168.382 440.11 168.382 468.944 171.799 480.024C175.215 491.137 191.564 496.822 191.564 496.822H225.795C225.796 496.822 211.746 493.98 205.487 483.602ZM479.495 430.212C467.553 453.138 474.961 491.808 474.961 491.808C484.413 471.34 479.495 430.212 479.495 430.212ZM173.492 378.226C168.574 378.928 164.774 383.175 164.774 388.316C164.774 393.425 168.542 397.672 173.492 398.374C173.492 393.554 173.492 381.707 173.492 378.226ZM439.261 408.689C439.261 408.689 440.059 455.278 472.47 502.633C472.47 502.633 474.801 475.779 463.689 445.093C452.609 414.373 439.261 408.689 439.261 408.689ZM431.948 502.633C407.137 503.751 401.613 509.977 401.613 509.977C401.613 509.977 442.199 512.819 470.618 504.869C470.618 504.869 456.792 501.515 431.948 502.633ZM443.604 468.657C425.115 452.181 410.331 450.488 410.331 450.488C410.331 450.488 440.474 496.789 470.618 503.495C470.618 503.495 462.092 485.134 443.604 468.657ZM131.629 537.758C117.707 538.907 104.934 532.936 112.885 514.735C120.836 496.534 122.273 484.304 102.093 482.612C88.362 481.462 79.1336 486.188 73.1625 482.835C72.2369 438.673 96.1214 414.852 96.1214 414.852C96.1214 414.852 91.1722 417.885 80.187 438.162C73.2578 450.936 72.0443 469.839 72.1082 482.132C69.8414 480.345 68.0845 477.024 66.8396 471.243C62.2726 450.488 61.9848 450.775 54.3216 450.775C46.7214 450.775 39.9199 455.373 39.7607 455.501C35.9287 488.583 49.6593 522.016 93.1826 535.97C114.034 542.676 131.086 545.039 147.02 544.081C146.988 543.921 145.423 536.641 131.629 537.758ZM94.9385 403.357C94.9385 403.357 90.7871 408.625 94.9385 414.5C94.9385 414.501 100.112 408.497 94.9385 403.357ZM90.3086 420.6C90.3086 420.6 92.9271 413.128 86.2211 410.222C86.2211 410.222 84.306 416.639 90.3086 420.6ZM91.7136 421.463C98.1643 424.624 102.73 419.706 102.73 419.706C96.8545 415.394 91.7136 421.463 91.7136 421.463ZM99.3777 426.794C93.5019 422.516 88.3611 428.551 88.3611 428.551C94.8108 431.712 99.3777 426.794 99.3777 426.794ZM95.0986 435.161C89.2228 430.882 84.1143 436.917 84.1143 436.917C90.564 440.078 95.0986 435.161 95.0986 435.161ZM91.4267 443.719C85.5509 439.44 80.4424 445.475 80.4424 445.475C86.8921 448.637 91.4267 443.719 91.4267 443.719ZM76.7372 457.226C83.1878 460.387 87.7539 455.469 87.7539 455.469C81.8466 451.191 76.7372 457.226 76.7372 457.226ZM85.4232 426.986C85.4232 426.986 88.0417 419.514 81.368 416.609C81.368 416.609 79.452 423.027 85.4232 426.986ZM80.5692 435.991C80.5692 435.991 83.1878 428.519 76.5141 425.613C76.5141 425.613 74.5666 432.032 80.5692 435.991ZM75.7162 444.517C75.7162 444.517 78.3348 437.044 71.6287 434.139C71.6287 434.139 69.7127 440.557 75.7162 444.517ZM72.3951 458.727C72.3951 458.727 73.8002 450.936 66.7433 449.148C66.7433 449.147 65.8807 455.789 72.3951 458.727Z" fill="#ED7420"/>
            <path d="M490.486 370.435C465.611 332.213 421.577 353.767 355.83 316.023C290.082 278.312 322.844 211.064 218.714 211C128.826 210.967 105.483 290.191 114.584 332.916C124.835 381.133 56.8525 400.803 47.0808 440.143C46.1857 443.757 45.4897 447.406 45 451.063C47.7278 449.724 51.9217 448.126 56.4054 448.126C64.0686 448.126 64.3565 447.839 68.9234 468.594C70.1684 474.374 71.9252 477.696 74.192 479.483C74.1282 467.19 75.3416 448.287 82.2708 435.512C93.256 415.236 98.2053 412.203 98.2053 412.203C98.2053 412.203 74.3207 436.023 75.2463 480.185C81.2175 483.539 90.4458 478.813 104.176 479.962C124.357 481.654 122.92 493.885 114.969 512.086C107.018 530.287 119.791 536.258 133.713 535.109C147.507 533.991 149.071 541.272 149.104 541.431C147.298 541.54 145.475 541.6 143.636 541.621C168.695 541.987 190.074 534.202 217.405 521.729C240.588 511.127 268.464 500.557 318.246 531.372C368.028 562.218 453.797 538.205 480.652 495.449C502.366 460.835 519.129 414.47 490.486 370.435ZM74.479 456.078C67.9645 453.14 68.8272 446.498 68.8272 446.499C75.8841 448.287 74.479 456.078 74.479 456.078ZM77.8001 441.868C71.7965 437.908 73.7126 431.49 73.7126 431.49C80.4186 434.395 77.8001 441.868 77.8001 441.868ZM82.6531 433.342C76.6505 429.383 78.598 422.964 78.598 422.964C85.2716 425.869 82.6531 433.342 82.6531 433.342ZM87.507 424.337C81.5359 420.378 83.4519 413.96 83.4519 413.96C90.1256 416.865 87.507 424.337 87.507 424.337ZM92.3924 417.951C86.3898 413.99 88.3049 407.573 88.3049 407.573C95.011 410.479 92.3924 417.951 92.3924 417.951ZM97.0223 411.851C92.8709 405.976 97.0223 400.708 97.0223 400.708C102.196 405.847 97.0223 411.852 97.0223 411.851ZM78.821 454.576C78.821 454.576 83.9304 448.541 89.8377 452.82C89.8377 452.82 85.2716 457.737 78.821 454.576ZM82.5263 442.826C82.5263 442.826 87.6347 436.791 93.5105 441.07C93.5105 441.07 88.976 445.988 82.5263 442.826ZM86.1982 434.268C86.1982 434.268 91.3067 428.233 97.1825 432.512C97.1825 432.512 92.6479 437.429 86.1982 434.268ZM90.4449 425.902C90.4449 425.902 95.5858 419.867 101.462 424.145C101.462 424.145 96.8946 429.063 90.4449 425.902ZM93.7975 418.813C93.7975 418.813 98.9384 412.745 104.814 417.057C104.814 417.057 100.248 421.974 93.7975 418.813ZM315.661 350.191H385.176V378.802H315.661V350.191ZM315.661 381.133H385.176V428.583H315.661V381.133ZM240.973 281.794C240.973 281.794 248.062 275.247 256.524 279.909C264.954 284.539 263.422 296.099 265.592 297.536C267.795 298.94 274.596 298.11 279.067 304.496C283.505 310.915 282.036 322.346 277.63 325.475C273.223 328.605 269.743 326.561 269.743 326.561C268.529 327.264 267.348 327.871 266.646 329.755C265.337 333.267 268.434 338.663 268.434 338.663C310.041 351.245 308.732 418.908 308.732 418.907C293.373 410.381 260.068 414.949 260.068 414.949V388.604L255.661 389.531C251.669 387.839 246.943 370.404 246.943 370.404C252.052 369.254 258.247 365.293 258.247 365.293L257.641 344.347L260.066 342.625L259.271 343.007C259.271 343.007 259.622 334.193 258.696 333.363C257.738 332.501 251.096 337.419 245.029 330.777C240.21 325.511 243.078 312.848 244.451 307.955C242.163 306.931 239.851 305.152 237.748 302.071C231.777 293.32 240.973 281.794 240.973 281.794ZM331.531 533.8C315.757 533.8 302.952 521.026 302.952 505.221C302.952 502.538 303.335 499.92 304.038 497.46H316.266C315.883 498.834 315.66 500.271 315.66 501.772C315.66 510.553 322.781 517.642 331.531 517.642C331.531 517.642 331.531 517.642 331.531 517.642C322.782 517.642 315.661 510.554 315.661 501.772C315.661 500.271 315.884 498.833 316.267 497.46H346.826H359.025C359.728 499.92 360.111 502.538 360.111 505.221C360.111 521.026 347.306 533.8 331.531 533.8ZM390.669 436.152H357.78L368.956 459.653L368.955 459.654C368.955 459.654 382.4 466.486 389.232 496.249H367.423H284.239H202.788C203.354 498.475 203.674 500.813 203.674 503.21C203.674 518.983 190.902 531.788 175.095 531.788C159.321 531.788 146.548 518.983 146.548 503.21C146.548 500.813 146.868 498.475 147.411 496.249H136.204C137.162 481.528 156.065 461.283 171.552 460.835C171.58 461.323 171.614 461.799 171.646 462.278C170.823 449.441 171.568 433.56 173.883 425.359C176.373 416.481 188.38 402.879 194.575 396.268C195.947 395.931 196.974 395.668 197.396 395.558C195.58 396.021 182.371 399.367 180.143 399.367C177.715 399.365 175.576 397.801 175.576 397.801C175.576 397.801 175.576 397.011 175.576 395.725C170.626 395.022 166.858 390.776 166.858 385.667C166.858 380.525 170.658 376.279 175.576 375.577C175.576 375.015 175.576 374.665 175.576 374.618C175.576 374.203 175.16 371.777 178.417 370.916C180.939 370.276 197.092 376.15 204.438 378.897C205.664 378.796 206.485 378.802 206.485 378.802C222.1 379.504 247.294 371.713 247.294 371.713C248.188 374.715 250.487 382.187 252.978 386.497C232.222 390.169 216.32 385.668 215.745 385.571C215.202 385.477 213.574 385.379 213.191 387.648C212.807 389.914 212.169 391.926 210.444 393.14C208.752 394.385 206.772 395.056 207.028 392.277C207.101 391.583 206.989 390.95 206.742 390.395L206.71 390.68C206.71 390.68 206.869 394.097 206.007 395.791C205.868 396.067 205.682 396.342 205.463 396.607C204.632 414.223 202.272 472.173 207.571 480.952C209.485 484.127 212.13 486.593 214.878 488.492C217.227 488.594 219.601 488.699 221.995 488.806C222.214 488.621 222.452 488.446 222.738 488.296C224.622 487.306 224.974 487.082 226.794 487.051C228.613 487.018 231.04 484.368 231.04 484.368H231.297L230.594 477.471H228.167C228.167 477.471 228.109 477.192 228.009 476.675C228.109 477.192 228.167 477.471 228.167 477.471C228.167 477.471 221.717 447.168 228.167 433.148C234.618 419.099 260.068 414.949 260.068 414.949C260.068 414.949 293.372 410.381 308.732 418.907C307.524 426.357 305.118 432.109 300.943 436.15H307.741V428.583H390.669V436.152ZM403.697 507.328C403.697 507.328 409.221 501.102 434.032 499.984C458.876 498.866 472.702 502.22 472.702 502.22C444.282 510.17 403.697 507.328 403.697 507.328ZM412.414 447.839C412.414 447.839 427.199 449.532 445.688 466.008C464.176 482.485 472.702 500.846 472.702 500.846C442.558 494.14 412.414 447.839 412.414 447.839ZM474.554 499.984C442.142 452.629 441.345 406.04 441.345 406.04C441.345 406.04 454.693 411.724 465.772 442.443C476.884 473.129 474.554 499.984 474.554 499.984ZM477.045 489.159C477.045 489.159 469.637 450.489 481.579 427.562C481.579 427.562 486.497 468.691 477.045 489.159ZM278.747 443.304V491.522L239.388 489.575L239.567 484.784C239.567 484.784 239.428 483.664 238.193 483.698L237.619 484.369L238.194 477.472H240.109C240.109 477.472 240.314 457.178 248.413 448.964C248.413 448.964 252.925 444.798 261.372 443.873C269.818 442.947 278.747 443.304 278.747 443.304Z" fill="white"/>
            <rect x="159" y="274" width="133" height="174" fill="white"/>
            <rect x="256" y="340" width="129" height="108" fill="white"/>
            <rect x="147" y="425" width="246" height="86" fill="white"/>
            <rect x="323" y="478" width="46" height="50" fill="white"/>
            <path fill-rule="evenodd" clip-rule="evenodd" d="M216.218 493.222H211.289C210.383 493.222 209.646 492.496 209.646 491.568V468.689L216.218 493.222ZM331.529 342.536C332.457 342.536 333.184 343.274 333.184 344.179V491.568C333.184 492.485 332.446 493.223 331.529 493.223H267.24L279.356 489.97C279.568 489.914 279.691 489.702 279.635 489.49L278.652 485.834C278.596 485.622 278.383 485.499 278.171 485.555L275.198 486.349L271.141 471.193H325.807C326.019 471.193 326.198 471.014 326.198 470.791V351.612C326.198 351.388 326.019 351.209 325.807 351.209H217.022C216.799 351.209 216.631 351.388 216.631 351.612V427.793L216.486 427.815L211.02 424.239L209.646 422.886V344.179C209.646 343.274 210.361 342.536 211.289 342.536H331.529ZM324.264 487.477C325.326 487.477 326.198 486.595 326.198 485.544V479.844C326.198 478.793 325.326 477.91 324.264 477.91H309.019C307.969 477.91 307.085 478.76 307.085 479.844V485.544C307.085 486.617 307.957 487.477 309.019 487.477H324.264ZM209.646 430.732V448.202L216.631 446.335V436.455L213.859 437.17C213.021 437.394 212.082 437.114 211.523 436.444L211.165 436.522C210.998 436.522 210.83 436.399 210.785 436.232L209.802 432.565C209.746 432.364 209.858 432.163 210.059 432.096L209.969 431.291C209.958 431.168 209.947 431.034 209.947 430.9L209.646 430.732ZM217.413 364.655H325.404V372.68H217.413V364.655ZM276.729 366.879H266.089C265.877 366.879 265.698 367.058 265.698 367.27V370.065C265.698 370.288 265.876 370.467 266.089 370.467H276.729C276.953 370.467 277.12 370.288 277.12 370.065V367.27C277.12 367.058 276.953 366.879 276.729 366.879ZM217.413 358.161H325.404V363.862H217.413V358.161ZM217.413 352.003H325.404V357.379H217.413V352.003Z" fill="#1ACEBD"/>
            <path fill-rule="evenodd" clip-rule="evenodd" d="M259.718 491.311L260.489 494.217L278.775 489.31L278.004 486.415L275.019 487.22L259.718 491.311ZM231.452 467.337L228.479 468.131L232.335 482.538L238.27 480.951L234.414 466.543L231.452 467.337ZM222.421 458.842L229.373 456.987L226.065 444.625L222.589 445.553L219.102 446.492L222.421 458.842ZM198.278 433.65V429.615C198.278 428.81 197.563 428.184 196.736 428.318L194.043 428.765C193.919 428.788 193.797 428.754 193.696 428.665L189.404 424.596L185.402 428.609L188.107 430.487C188.22 430.554 188.297 430.677 188.297 430.822C188.297 432.51 188.856 434.186 189.471 435.718C189.761 436.388 190.51 436.757 191.226 436.578L197.127 435.125C197.809 434.946 198.278 434.343 198.278 433.65ZM213.658 436.41L220.957 434.521C221.605 434.354 222.052 433.795 222.085 433.113L222.041 432.666L221.113 429.067C220.935 428.385 220.286 427.982 219.616 428.095L216.497 428.609L216.386 428.62C216.318 428.62 216.251 428.609 216.184 428.564L210.786 425.032L207.344 428.474L210.507 430.318C210.82 430.486 210.708 430.799 210.753 431.324L211.233 433.739C211.434 434.398 211.669 435.013 211.881 435.527C211.948 435.885 212.708 436.667 213.658 436.41ZM180.318 366.7V379.174C180.318 382.661 177.49 385.466 174.025 385.466H166.19C165.665 385.466 165.665 386.26 166.19 386.26H169.51V392.195C169.51 392.385 169.655 392.553 169.834 392.575V392.587H170.37C170.336 392.844 170.258 393.101 170.158 393.347C169.331 395.191 166.928 396.029 165.005 396.029L163.887 395.951L161.227 393.291L160.288 392.519C160.389 392.441 160.456 392.33 160.456 392.195V378.157C160.456 377.945 160.277 377.766 160.054 377.766H157.505C156.913 377.766 156.376 377.531 155.985 377.14C154.644 375.799 155.594 373.474 157.494 373.474H160.054C160.277 373.474 160.456 373.295 160.456 373.082V366.701L180.318 366.7ZM166 381.934C165.363 381.297 164.972 380.425 164.972 379.453C164.972 379.241 165.151 379.062 165.363 379.062H171.589C171.801 379.062 171.98 379.24 171.98 379.453C171.979 382.56 168.213 384.147 166 381.934Z" fill="#FFD2BB"/>
            <path fill-rule="evenodd" clip-rule="evenodd" d="M160.623 512.178H145.636L146.63 501.069L149.827 501.404L154.745 501.94L160.624 509.82L160.623 512.178ZM191.785 512L208.729 502.13L207.79 500.208L196.993 501.013L189.169 505.059L191.785 512ZM224.678 506.702C226.187 504.075 223.773 500.968 220.878 501.717L220.845 501.728C219.962 501.974 219.246 502.555 218.81 503.293L218.799 503.304C218.374 504.053 218.229 504.969 218.464 505.863C218.732 506.78 219.258 507.518 220.051 507.943C220.8 508.378 221.716 508.524 222.622 508.278C223.527 508.043 224.254 507.451 224.678 506.702ZM242.841 507.686C245.423 509.194 248.608 506.814 247.815 503.863C247.658 503.271 247.345 502.756 246.943 502.354V502.343C246.697 502.097 246.406 501.896 246.105 501.728L246.753 504.154C246.809 504.366 246.686 504.579 246.473 504.634L242.707 505.629C242.54 505.629 242.372 505.517 242.327 505.339L241.679 502.913C240.65 504.556 241.153 506.702 242.841 507.686ZM244.629 499.28L241.734 500.063L242.997 504.757L245.892 503.975L244.629 499.28ZM258.957 491.523L227.83 499.861C228.489 500.644 229.015 501.583 229.328 502.566L238.09 500.219L238.113 500.208L247.837 497.603H247.859L259.728 494.418L259.348 492.976L258.957 491.523ZM201.207 434.152L218.274 497.839C219.157 497.413 220.185 497.123 221.168 497.056L217.48 483.286L203.8 432.252C203.576 431.414 202.995 430.62 202.246 430.196C201.732 429.905 201.184 429.748 200.592 429.737C199.999 429.726 199.619 429.86 199.072 430.005V433.112C199.575 432.967 199.988 432.911 200.48 433.202C200.827 433.404 201.095 433.739 201.207 434.152ZM324.264 478.704C324.901 478.704 325.404 479.217 325.404 479.844V485.543C325.404 486.169 324.901 486.683 324.264 486.683H309.019C308.371 486.683 307.868 486.158 307.868 485.543V479.844C307.868 479.217 308.382 478.704 309.019 478.704H324.264ZM229.518 442.882L226.601 431.984C226.198 430.509 224.846 429.47 223.337 429.47L222.085 429.682L222.856 432.778C223.404 432.923 223.851 433.336 224.008 433.895L226.623 443.664L229.518 442.882ZM180.317 440.747H151.939V400.488C152.196 400.879 152.498 401.259 152.855 401.617C161.987 410.805 171.163 419.936 180.317 429.078L180.317 440.747ZM176.26 392.586C178.518 392.586 180.317 394.419 180.317 396.621V412.38L164.748 396.811H164.982C167.776 396.811 170.873 395.279 171.174 392.586H176.26ZM159.662 378.559V380.281C159.07 379.833 158.544 379.196 158.131 378.559H159.662ZM159.662 366.7V372.68H157.505C156.991 372.68 156.511 372.814 156.086 373.049C155.505 370.277 155.382 367.673 155.359 366.701H159.662V366.7ZM266.491 367.661H276.338V369.673H266.491V367.661Z" fill="#00CEC9"/>
            <path fill-rule="evenodd" clip-rule="evenodd" d="M218.285 512.178H217.178C214.492 512.178 212.253 510.244 211.782 507.693H212.859C212.962 507.693 213.061 507.652 213.135 507.578C213.208 507.505 213.25 507.406 213.25 507.302C213.25 507.198 213.208 507.099 213.135 507.025C213.061 506.952 212.962 506.911 212.859 506.911C212.534 506.911 212.075 506.911 211.751 506.911C211.732 506.911 211.714 506.912 211.695 506.914C211.692 506.84 211.69 506.765 211.69 506.691V504C211.711 504.003 211.731 504.005 211.751 504.005H213.183C213.287 504.005 213.386 503.964 213.459 503.89C213.533 503.817 213.574 503.717 213.574 503.613C213.574 503.51 213.533 503.41 213.459 503.337C213.386 503.263 213.287 503.222 213.183 503.222H211.751C211.731 503.222 211.711 503.224 211.69 503.227V500.81C211.711 500.813 211.731 500.814 211.751 500.814C212.367 500.814 213.557 500.814 214.174 500.814C214.278 500.814 214.377 500.773 214.45 500.7C214.524 500.627 214.565 500.527 214.565 500.423C214.565 500.319 214.524 500.22 214.45 500.147C214.377 500.073 214.278 500.032 214.174 500.032C213.558 500.032 212.368 500.032 211.751 500.032C211.731 500.032 211.711 500.034 211.69 500.037V497.121C211.711 497.124 211.731 497.126 211.751 497.126C212.662 497.126 214.915 497.126 215.826 497.126C215.93 497.126 216.029 497.085 216.102 497.012C216.176 496.938 216.217 496.839 216.217 496.735C216.217 496.631 216.176 496.532 216.102 496.458C216.029 496.385 215.93 496.344 215.826 496.344C214.915 496.344 212.662 496.344 211.751 496.344C211.731 496.344 211.711 496.345 211.69 496.348V494.004H216.429L217.558 498.229C215.636 499.479 214.381 501.324 213.958 503.328C213.244 506.706 214.721 510.466 218.285 512.178ZM325.851 512.178H320.989C318.301 512.178 316.063 510.251 315.592 507.693H318.787C318.891 507.693 318.99 507.652 319.064 507.578C319.137 507.505 319.179 507.406 319.179 507.302C319.179 507.198 319.137 507.099 319.064 507.025C318.99 506.952 318.891 506.911 318.787 506.911H315.506C315.503 506.837 315.501 506.764 315.501 506.691V504.005H322.275C322.379 504.005 322.478 503.964 322.551 503.89C322.625 503.817 322.666 503.717 322.666 503.613C322.666 503.51 322.625 503.41 322.551 503.337C322.478 503.263 322.379 503.222 322.275 503.222H315.501V500.814H318.787C318.891 500.814 318.99 500.773 319.064 500.7C319.137 500.627 319.179 500.527 319.179 500.423C319.179 500.319 319.137 500.22 319.064 500.147C318.99 500.073 318.891 500.032 318.787 500.032H315.501V497.126H322.275C322.379 497.126 322.478 497.085 322.551 497.012C322.625 496.938 322.666 496.839 322.666 496.735C322.666 496.631 322.625 496.532 322.551 496.458C322.478 496.385 322.379 496.344 322.275 496.344H315.501V494.004H331.339V496.344H328.27C328.166 496.344 328.067 496.385 327.994 496.458C327.92 496.532 327.879 496.631 327.879 496.735C327.879 496.839 327.92 496.938 327.994 497.012C328.067 497.085 328.167 497.126 328.27 497.126H331.339V500.032H324.783C324.679 500.032 324.58 500.073 324.506 500.147C324.433 500.22 324.392 500.319 324.392 500.423C324.392 500.527 324.433 500.627 324.506 500.7C324.58 500.773 324.679 500.814 324.783 500.814H331.339V503.222H328.27C328.166 503.222 328.067 503.263 327.994 503.337C327.92 503.41 327.879 503.51 327.879 503.613C327.879 503.717 327.92 503.817 327.994 503.89C328.067 503.964 328.167 504.005 328.27 504.005H331.339V506.691C331.339 506.764 331.337 506.838 331.334 506.911H324.783C324.679 506.911 324.58 506.952 324.506 507.025C324.433 507.099 324.392 507.198 324.392 507.302C324.392 507.406 324.433 507.505 324.506 507.578C324.58 507.652 324.679 507.693 324.783 507.693H331.247C330.773 510.244 328.528 512.178 325.851 512.178ZM320.569 507.302C320.569 507.198 320.61 507.099 320.684 507.025C320.757 506.952 320.856 506.911 320.96 506.911C321.285 506.911 321.743 506.911 322.067 506.911C322.171 506.911 322.27 506.952 322.344 507.025C322.417 507.099 322.459 507.198 322.459 507.302C322.459 507.406 322.417 507.505 322.344 507.578C322.27 507.652 322.171 507.693 322.067 507.693C321.743 507.693 321.285 507.693 320.96 507.693C320.856 507.693 320.757 507.652 320.684 507.578C320.61 507.505 320.569 507.406 320.569 507.302ZM180.406 441.53L196.423 500.431L188.878 504.31L168.201 452.695C168.056 452.337 167.553 452.393 167.452 452.74L154.666 501.136L146.708 500.286L151.906 441.53H180.406ZM326.489 503.613C326.489 503.51 326.447 503.41 326.374 503.337C326.3 503.263 326.201 503.222 326.097 503.222C325.773 503.222 325.314 503.222 324.99 503.222C324.886 503.222 324.787 503.263 324.714 503.337C324.64 503.41 324.599 503.51 324.599 503.613C324.599 503.717 324.64 503.817 324.714 503.89C324.787 503.964 324.886 504.005 324.99 504.005C325.314 504.005 325.773 504.005 326.097 504.005C326.201 504.005 326.3 503.964 326.374 503.89C326.447 503.817 326.489 503.717 326.489 503.613ZM320.569 500.424C320.569 500.32 320.61 500.221 320.684 500.147C320.757 500.074 320.856 500.032 320.96 500.032C321.285 500.032 321.743 500.032 322.067 500.032C322.171 500.032 322.27 500.074 322.344 500.147C322.417 500.221 322.459 500.32 322.459 500.424C322.459 500.528 322.417 500.627 322.344 500.7C322.27 500.774 322.171 500.815 322.067 500.815C321.743 500.815 321.285 500.815 320.96 500.815C320.856 500.815 320.757 500.774 320.684 500.7C320.61 500.627 320.569 500.528 320.569 500.424ZM326.489 496.735C326.489 496.631 326.447 496.532 326.374 496.458C326.3 496.385 326.201 496.344 326.097 496.344C325.773 496.344 325.314 496.344 324.99 496.344C324.886 496.344 324.787 496.385 324.714 496.458C324.64 496.532 324.599 496.631 324.599 496.735C324.599 496.839 324.64 496.939 324.714 497.012C324.787 497.085 324.886 497.126 324.99 497.126C325.314 497.126 325.773 497.126 326.097 497.126C326.201 497.126 326.3 497.085 326.374 497.012C326.447 496.939 326.489 496.839 326.489 496.735ZM248.463 462.777L256.152 491.457L274.438 486.561L266.748 457.881L248.463 462.777ZM315.021 382.236V470.399H270.928L267.407 457.289C267.362 457.121 267.206 456.998 267.027 456.998L258.432 459.289L252.497 437.136C252.452 436.958 252.285 436.846 252.117 436.846L230.277 442.68L227.796 433.415V382.236H315.021ZM242.617 463.526L257.673 459.491L251.838 437.718L236.783 441.753L242.617 463.526ZM159.852 365.918H155.359C155.449 362.107 156.834 358.675 159.025 356.172C164.267 350.192 172.74 350.762 177.389 357.11C166.715 357.435 160.769 364.722 159.852 365.918Z" fill="#E84393"/>
            <path fill-rule="evenodd" clip-rule="evenodd" d="M221.861 497.827C217.089 497.783 213.58 502.242 214.809 506.858C215.838 510.703 219.772 512.949 223.606 511.932C225.517 511.43 227.037 510.188 227.953 508.59C228.881 507.003 229.194 505.058 228.68 503.147C228.434 502.376 228.3 501.951 227.875 501.259C226.578 499.169 224.32 497.872 221.861 497.827ZM245.847 500.778C248.351 501.594 249.491 504.544 248.161 506.836C246.305 510.043 241.466 509.429 240.505 505.83C240.136 504.455 240.494 503.002 241.421 501.962L240.963 500.264L238.459 500.934C237.956 501.75 237.61 502.656 237.453 503.605C236.973 506.545 238.381 509.473 240.952 510.96C244.394 512.949 248.764 511.776 250.754 508.333C252.229 505.785 251.995 502.544 250.117 500.219C249.502 499.47 248.742 498.855 247.904 498.408L245.389 499.079L245.847 500.778ZM223.829 501.381C224.756 501.918 225.483 502.812 225.785 503.919V503.93C226.075 505.037 225.897 506.165 225.36 507.093C224.823 508.02 223.94 508.747 222.823 509.049C220.61 509.641 218.319 508.333 217.704 506.087C217.391 504.913 217.603 503.874 218.14 502.89C218.676 501.974 219.559 501.259 220.666 500.968H220.677C221.783 500.666 222.912 500.856 223.829 501.381ZM227.718 468.332L215.189 471.696L221.974 497.045C223.93 497.101 225.807 497.883 227.215 499.213L255.392 491.658L247.703 462.978L235.174 466.342L239.142 481.129C239.198 481.33 239.063 481.554 238.862 481.609L232.156 483.397C231.955 483.453 231.731 483.33 231.676 483.118L227.718 468.332ZM214.977 470.936L241.857 463.727L236.022 441.954L230.099 443.541L226.824 444.413L230.233 457.154C230.289 457.367 230.166 457.591 229.953 457.646L222.241 459.714C222.029 459.77 221.816 459.635 221.76 459.435L218.34 446.693L216.597 447.151L209.365 449.096L209.142 449.152L214.977 470.936ZM325.404 470.399H315.803V382.035L325.404 373.932V470.399ZM217.413 436.254V446.123L225.851 443.866L225.773 443.553L223.247 434.097L222.811 433.594C222.621 434.41 221.962 435.069 221.146 435.282L217.413 436.254ZM227.014 382.035L217.414 373.932V427.659L219.828 427.29C220.811 427.29 221.638 427.927 221.884 428.922C222.432 428.787 222.756 428.687 223.349 428.687C224.086 428.687 224.802 428.888 225.416 429.246L225.427 429.257C226.087 429.648 226.646 430.207 227.014 430.911V382.035H227.014ZM181.099 409.91L200.156 428.967C201.642 428.832 203.106 429.503 203.956 430.744L210.181 424.518L180.999 395.626L181.099 396.632V409.91ZM153.415 401.058L182.62 430.263L189.851 423.032L160.669 393.849C160.188 393.368 159.629 392.988 159.014 392.72L159.003 392.708C158.388 392.451 157.751 392.328 157.103 392.339C155.84 392.351 154.555 392.876 153.493 393.938L152.878 394.631C152.219 395.502 151.85 396.453 151.816 397.425C151.772 398.789 152.42 400.063 153.415 401.058ZM171.163 379.855C171.074 380.448 170.794 380.973 170.392 381.375C168.816 382.951 166.122 382.046 165.787 379.855H171.163ZM218.106 373.473H324.733L315.266 381.453H227.562L218.106 373.473ZM180.585 365.918H160.87C162.535 363.917 168.358 357.882 178.149 357.882C179.2 357.882 180.284 357.96 181.424 358.105C189.951 359.245 181.603 365.214 180.585 365.918Z" fill="#FBC02D"/>
            <path d="M136.091 512.972H131.542C131.329 512.972 131.15 512.793 131.15 512.581C131.15 512.357 131.329 512.178 131.542 512.178H136.091C136.314 512.178 136.482 512.357 136.482 512.581C136.482 512.793 136.314 512.972 136.091 512.972ZM176.26 391.792C177.602 391.792 178.808 392.34 179.68 393.212C179.825 393.212 201.497 414.917 208.852 422.138V344.179C208.852 343.855 208.919 343.542 209.041 343.252C209.165 342.95 209.343 342.681 209.566 342.458C209.79 342.234 210.047 342.066 210.338 341.944L210.36 341.933C210.651 341.809 210.964 341.743 211.288 341.743H331.529C331.853 341.743 332.166 341.81 332.467 341.933C332.758 342.056 333.026 342.234 333.25 342.458C333.474 342.681 333.652 342.938 333.775 343.229L333.786 343.252C333.898 343.542 333.965 343.855 333.965 344.179V491.568C333.965 491.893 333.898 492.217 333.786 492.507C333.663 492.798 333.485 493.066 333.25 493.301C333.038 493.513 332.769 493.692 332.49 493.815L332.467 493.826C332.356 493.871 332.244 493.916 332.121 493.938V506.691C332.121 507.529 331.953 508.345 331.64 509.094C331.338 509.843 330.88 510.525 330.299 511.106L330.287 511.128C329.874 511.553 329.405 511.9 328.89 512.179H335.172C335.395 512.179 335.563 512.358 335.563 512.582C335.563 512.794 335.396 512.973 335.172 512.973H138.393C138.169 512.973 137.991 512.794 137.991 512.582C137.991 512.358 138.169 512.179 138.393 512.179H144.853L145.881 500.678V500.6L151.146 441.105V398.632C151.057 398.219 151.023 397.817 151.034 397.403C151.079 395.961 151.738 394.564 152.912 393.391L152.934 393.38C154.152 392.161 155.628 391.569 157.092 391.547C157.729 391.547 158.355 391.647 158.958 391.848C159.014 391.815 159.081 391.792 159.159 391.792H159.662V381.241C159.159 380.928 158.712 380.537 158.298 380.079C157.885 379.632 157.527 379.107 157.214 378.548C156.51 378.481 155.884 378.157 155.426 377.698C154.889 377.162 154.565 376.435 154.565 375.619C154.565 374.826 154.878 374.1 155.403 373.574C154.565 369.874 154.565 366.32 154.565 366.309V366.287C154.577 362.14 156.052 358.384 158.432 355.657C160.836 352.908 164.155 351.209 167.832 351.209C169.967 351.209 171.99 351.79 173.779 352.807C175.567 353.836 177.121 355.311 178.339 357.099C179.356 357.099 180.418 357.178 181.524 357.323C191.874 358.709 182.496 365.538 181.099 366.522V379.174C181.099 381.13 180.305 382.907 179.02 384.181C177.746 385.466 175.969 386.26 174.024 386.26H170.302V391.793H176.26V391.792ZM221.862 497.827H221.627C221.393 497.827 221.158 497.85 220.923 497.872C220.904 497.877 220.882 497.88 220.86 497.882L220.841 497.884C220.819 497.887 220.797 497.89 220.778 497.894C220.733 497.906 220.688 497.906 220.632 497.917C220.52 497.928 220.42 497.95 220.308 497.973C220.163 498.006 220.029 498.04 219.883 498.074C219.593 498.152 219.302 498.252 219.023 498.364C217.76 498.889 216.698 499.739 215.938 500.79C215.603 501.237 215.335 501.728 215.123 502.232C214.53 503.651 214.385 505.272 214.809 506.859C215.044 507.73 215.424 508.524 215.927 509.206C216.218 509.608 216.542 509.989 216.911 510.313C216.944 510.346 216.978 510.369 217.012 510.402C217.369 510.715 217.749 510.983 218.151 511.218C218.956 511.676 219.839 511.989 220.767 512.112L220.945 512.135C221.169 512.157 221.393 512.179 221.627 512.179H221.862C222.432 512.168 223.024 512.09 223.606 511.933C225.517 511.431 227.037 510.19 227.954 508.591C228.881 507.005 229.194 505.059 228.68 503.148C228.501 502.467 228.222 501.841 227.876 501.26C227.63 500.88 227.362 500.51 227.06 500.186C226.993 500.108 226.926 500.03 226.848 499.963C226.837 499.952 226.825 499.941 226.814 499.929C226.68 499.795 226.535 499.661 226.389 499.538C226.065 499.259 225.708 499.002 225.327 498.789C225.227 498.733 225.115 498.678 225.014 498.622C224.836 498.532 224.646 498.443 224.456 498.365C224.288 498.298 224.109 498.231 223.942 498.175C223.27 497.961 222.577 497.839 221.862 497.827ZM149.827 501.404L146.63 501.069L145.636 512.178H160.624V509.82L154.745 501.94L149.827 501.404ZM314.708 494.005H264.311L260.31 495.078L248.966 498.118C249.625 498.565 250.217 499.102 250.721 499.728C251.413 500.566 251.939 501.572 252.229 502.69C252.799 504.802 252.453 506.959 251.436 508.725C250.553 510.267 249.144 511.508 247.389 512.178H317.938C317.435 511.899 316.965 511.553 316.552 511.128C315.959 510.546 315.501 509.854 315.188 509.093C314.875 508.344 314.708 507.529 314.708 506.69V494.005ZM216.43 494.005H211.691V496.349C211.711 496.346 211.731 496.344 211.752 496.344C212.662 496.344 214.916 496.344 215.826 496.344C215.93 496.344 216.029 496.385 216.103 496.459C216.176 496.532 216.218 496.632 216.218 496.736C216.218 496.839 216.176 496.939 216.103 497.012C216.029 497.086 215.93 497.127 215.826 497.127C214.916 497.127 212.662 497.127 211.752 497.127C211.731 497.127 211.711 497.125 211.691 497.122V500.038C211.711 500.034 211.731 500.033 211.752 500.033C212.368 500.033 213.558 500.033 214.174 500.033C214.278 500.033 214.377 500.074 214.451 500.148C214.524 500.221 214.566 500.32 214.566 500.424C214.566 500.528 214.524 500.627 214.451 500.701C214.377 500.774 214.278 500.815 214.174 500.815C213.558 500.815 212.368 500.815 211.752 500.815C211.731 500.815 211.711 500.814 211.691 500.81V503.228C211.711 503.225 211.731 503.223 211.752 503.223H213.183C213.287 503.223 213.386 503.264 213.46 503.337C213.533 503.411 213.575 503.51 213.575 503.614C213.575 503.718 213.533 503.817 213.46 503.891C213.386 503.964 213.287 504.005 213.183 504.005H211.752C211.731 504.005 211.711 504.004 211.691 504.001V506.691C211.691 506.766 211.692 506.841 211.696 506.915C211.714 506.913 211.733 506.911 211.752 506.911C212.076 506.911 212.534 506.911 212.859 506.911C212.963 506.911 213.062 506.953 213.135 507.026C213.209 507.1 213.25 507.199 213.25 507.303C213.25 507.407 213.209 507.506 213.135 507.579C213.062 507.653 212.963 507.694 212.859 507.694H211.783C211.854 508.075 211.965 508.444 212.116 508.793C212.384 509.452 212.786 510.056 213.3 510.581C213.814 511.095 214.429 511.497 215.078 511.765C215.737 512.045 216.453 512.179 217.179 512.179H218.286C218.174 512.123 218.062 512.067 217.962 512.012C217.582 511.811 217.224 511.587 216.888 511.319C215.547 510.291 214.519 508.837 214.05 507.072C213.48 504.948 213.826 502.791 214.843 501.025C215.503 499.896 216.43 498.935 217.559 498.231L216.43 494.017V494.005H216.43ZM237.398 501.225L229.529 503.326C229.965 505.327 229.608 507.328 228.635 508.982C227.852 510.334 226.679 511.474 225.215 512.178H241.69C241.298 512.033 240.918 511.854 240.561 511.642C238.795 510.625 237.421 508.926 236.85 506.802C236.549 505.685 236.504 504.556 236.672 503.483C236.794 502.689 237.051 501.929 237.398 501.225ZM155.382 501.482L161.328 509.462C161.384 509.529 161.406 509.608 161.406 509.697V512.178H191.014L188.332 505.047C188.32 505.047 188.32 505.036 188.32 505.036L188.309 505.003L167.911 454.092L155.382 501.482ZM184.833 429.168L182.899 431.102C182.743 431.258 182.497 431.258 182.34 431.102C181.927 430.688 181.514 430.274 181.1 429.861V441.094L197.183 500.219L208.003 499.404C208.16 499.392 208.304 499.471 208.383 499.627L209.59 502.086C209.702 502.275 209.634 502.51 209.444 502.622C204.102 505.74 198.569 509.183 193.137 512.178H214.138C213.624 511.899 213.166 511.552 212.741 511.127C212.16 510.546 211.702 509.853 211.389 509.093C211.076 508.344 210.908 507.528 210.908 506.69V493.982C210.718 493.948 210.539 493.903 210.36 493.825C210.07 493.702 209.802 493.523 209.566 493.3V493.289C209.343 493.065 209.164 492.797 209.041 492.506C208.918 492.215 208.852 491.891 208.852 491.567V465.726L200.447 434.364C200.391 434.152 200.257 433.984 200.089 433.884C199.91 433.783 199.698 433.749 199.497 433.805L199.061 433.929C199.005 434.353 198.826 434.744 198.58 435.068C198.267 435.459 197.831 435.761 197.317 435.884L191.416 437.348C190.868 437.483 190.309 437.404 189.84 437.17C189.56 437.035 189.303 436.846 189.102 436.6L188.465 436.768C188.264 436.823 188.04 436.7 187.984 436.488L187.011 432.822C186.955 432.621 187.079 432.397 187.291 432.341L187.626 432.252C187.57 431.849 187.525 431.436 187.514 431.034L184.833 429.168ZM331.339 494.005H315.502V496.344H322.275C322.379 496.344 322.478 496.385 322.551 496.459C322.625 496.532 322.666 496.632 322.666 496.736C322.666 496.839 322.625 496.939 322.551 497.012C322.478 497.086 322.379 497.127 322.275 497.127H315.502V500.033H318.788C318.891 500.033 318.991 500.074 319.064 500.148C319.138 500.221 319.179 500.32 319.179 500.424C319.179 500.528 319.138 500.627 319.064 500.701C318.991 500.774 318.891 500.815 318.788 500.815H315.502V503.223H322.275C322.379 503.223 322.478 503.264 322.551 503.337C322.625 503.411 322.666 503.51 322.666 503.614C322.666 503.718 322.625 503.817 322.551 503.891C322.478 503.964 322.379 504.005 322.275 504.005H315.502V506.691C315.502 506.765 315.503 506.839 315.506 506.911H318.788C318.891 506.911 318.991 506.953 319.064 507.026C319.138 507.1 319.179 507.199 319.179 507.303C319.179 507.407 319.138 507.506 319.064 507.579C318.991 507.653 318.891 507.694 318.788 507.694H315.592C315.662 508.075 315.771 508.444 315.915 508.793C316.195 509.452 316.597 510.056 317.111 510.581C317.625 511.095 318.229 511.497 318.888 511.765C319.548 512.045 320.263 512.179 320.99 512.179H325.852C326.578 512.179 327.294 512.045 327.953 511.765C328.601 511.497 329.216 511.095 329.73 510.581L329.753 510.559C330.255 510.045 330.647 509.452 330.915 508.792C331.066 508.443 331.177 508.075 331.248 507.693H324.784C324.68 507.693 324.581 507.652 324.508 507.579C324.434 507.505 324.393 507.406 324.393 507.302C324.393 507.198 324.434 507.099 324.508 507.026C324.581 506.952 324.68 506.911 324.784 506.911H331.336C331.338 506.838 331.34 506.764 331.34 506.691V504.005H328.271C328.167 504.005 328.068 503.964 327.995 503.891C327.921 503.817 327.88 503.718 327.88 503.614C327.88 503.51 327.921 503.41 327.995 503.337C328.068 503.264 328.168 503.223 328.271 503.223H331.34V500.815H324.784C324.68 500.815 324.581 500.774 324.508 500.7C324.434 500.627 324.393 500.528 324.393 500.424C324.393 500.32 324.434 500.221 324.508 500.147C324.581 500.074 324.68 500.032 324.784 500.032H331.34V497.126H328.271C328.167 497.126 328.068 497.085 327.995 497.012C327.921 496.939 327.88 496.839 327.88 496.735C327.88 496.631 327.921 496.532 327.995 496.458C328.068 496.385 328.168 496.344 328.271 496.344H331.34V494.005H331.339ZM196.993 501.013L189.169 505.059L191.785 512L208.729 502.131L207.79 500.208L196.993 501.013ZM241.734 500.062L242.986 504.757L245.892 503.975L245.143 501.191L244.63 499.284L244.706 499.264L244.786 499.247L245.197 499.132L245.39 499.081L245.389 499.079L245.197 499.132L244.706 499.264L244.69 499.267L244.63 499.283L244.63 499.284L244.192 499.402L241.734 500.062ZM220.677 500.968C221.784 500.666 222.912 500.856 223.829 501.381C224.756 501.918 225.483 502.812 225.785 503.919V503.93C226.075 505.037 225.897 506.165 225.36 507.093C224.823 508.02 223.94 508.747 222.823 509.049C221.716 509.339 220.576 509.161 219.649 508.624L219.626 508.613C218.71 508.076 218.006 507.193 217.704 506.087C217.402 504.969 217.592 503.84 218.129 502.913L218.14 502.89C218.676 501.974 219.559 501.259 220.666 500.968H220.677ZM220.878 501.717L220.845 501.728C219.962 501.974 219.246 502.555 218.811 503.293L218.799 503.304C218.374 504.053 218.229 504.969 218.464 505.863L218.475 505.897C218.71 506.791 219.291 507.506 220.029 507.931L220.051 507.942C220.8 508.378 221.716 508.524 222.622 508.278C223.527 508.043 224.254 507.451 224.678 506.702C225.114 505.953 225.26 505.048 225.025 504.142L225.014 504.109C224.768 503.215 224.187 502.499 223.438 502.063C222.7 501.638 221.784 501.482 220.878 501.717ZM241.679 502.913C241.489 503.214 241.355 503.527 241.265 503.874C241.108 504.421 241.098 505.014 241.254 505.606L241.265 505.64C241.511 506.534 242.092 507.249 242.841 507.685C243.59 508.121 244.506 508.267 245.4 508.032L245.434 508.021C246.328 507.775 247.043 507.194 247.479 506.445C247.915 505.696 248.061 504.768 247.815 503.863C247.658 503.271 247.345 502.756 246.943 502.354V502.343C246.697 502.097 246.406 501.896 246.105 501.728L246.753 504.154C246.809 504.366 246.686 504.579 246.474 504.634L242.808 505.618C242.774 505.629 242.741 505.629 242.707 505.629C242.539 505.629 242.371 505.517 242.327 505.339L241.679 502.913ZM320.569 507.302C320.569 507.198 320.611 507.099 320.684 507.025C320.758 506.952 320.857 506.911 320.96 506.911C321.285 506.911 321.744 506.911 322.068 506.911C322.172 506.911 322.271 506.952 322.344 507.025C322.418 507.099 322.459 507.198 322.459 507.302C322.459 507.406 322.418 507.505 322.344 507.579C322.271 507.652 322.171 507.693 322.068 507.693C321.744 507.693 321.285 507.693 320.96 507.693C320.857 507.693 320.758 507.652 320.684 507.579C320.611 507.505 320.569 507.406 320.569 507.302ZM180.406 441.53H151.906L146.708 500.286L154.666 501.135L167.453 452.74C167.486 452.627 167.564 452.527 167.687 452.483C167.888 452.393 168.112 452.494 168.201 452.695L188.878 504.309L192.108 502.655L196.423 500.431L180.406 441.53ZM326.489 503.613C326.489 503.51 326.447 503.41 326.374 503.337C326.301 503.263 326.201 503.222 326.098 503.222C325.773 503.222 325.314 503.222 324.99 503.222C324.887 503.222 324.787 503.263 324.714 503.337C324.641 503.41 324.599 503.51 324.599 503.613C324.599 503.717 324.641 503.817 324.714 503.89C324.787 503.964 324.887 504.005 324.99 504.005C325.314 504.005 325.773 504.005 326.098 504.005C326.201 504.005 326.301 503.964 326.374 503.89C326.447 503.817 326.489 503.717 326.489 503.613ZM227.83 499.861C227.852 499.884 227.875 499.918 227.897 499.94C228.166 500.275 228.423 500.633 228.635 501.013L228.646 501.024C228.646 501.029 228.648 501.032 228.651 501.034L228.653 501.036C228.655 501.039 228.657 501.042 228.657 501.047C228.925 501.505 229.149 502.008 229.317 502.533C229.317 502.544 229.328 502.555 229.328 502.566L238.091 500.219C238.091 500.219 238.102 500.208 238.113 500.208L247.837 497.604H247.859L259.729 494.419L259.349 492.977L258.958 491.523L227.83 499.861ZM320.569 500.424C320.569 500.32 320.611 500.221 320.684 500.147C320.758 500.074 320.857 500.032 320.96 500.032C321.285 500.032 321.744 500.032 322.068 500.032C322.172 500.032 322.271 500.074 322.344 500.147C322.418 500.221 322.459 500.32 322.459 500.424C322.459 500.528 322.418 500.627 322.344 500.7C322.271 500.774 322.171 500.815 322.068 500.815C321.744 500.815 321.285 500.815 320.96 500.815C320.857 500.815 320.758 500.774 320.684 500.7C320.611 500.627 320.569 500.528 320.569 500.424ZM235.174 466.342L239.141 481.129C239.198 481.33 239.063 481.554 238.862 481.609L232.156 483.397C231.955 483.453 231.731 483.33 231.676 483.118L227.719 468.331L215.19 471.695L221.561 495.491L221.974 497.045C223.316 497.078 224.601 497.458 225.729 498.107C226.266 498.42 226.769 498.788 227.216 499.213L230.357 498.375L255.393 491.658L251.548 477.318L247.703 462.978L235.174 466.342ZM200.592 429.738C200.268 429.727 199.955 429.772 199.642 429.85L199.072 430.006V433.113L199.296 433.046C199.709 432.934 200.134 433.001 200.48 433.203C200.827 433.403 201.095 433.739 201.207 434.152L218.274 497.839C218.33 497.816 218.386 497.783 218.441 497.76C218.486 497.738 218.531 497.715 218.576 497.704C218.698 497.648 218.81 497.603 218.933 497.559C219.079 497.503 219.224 497.447 219.369 497.402C219.47 497.368 219.582 497.346 219.682 497.312H219.693C220.017 497.223 220.353 497.156 220.666 497.111C220.833 497.089 221.001 497.067 221.169 497.055L217.48 483.285L203.8 432.252C203.744 432.028 203.654 431.805 203.554 431.592C203.543 431.581 203.543 431.57 203.531 431.559C203.386 431.268 203.196 431.011 202.973 430.776C202.76 430.553 202.514 430.363 202.246 430.195L202.224 430.184H202.212C202.112 430.117 202 430.061 201.888 430.016C201.654 429.916 201.419 429.849 201.173 429.793C200.983 429.76 200.793 429.738 200.592 429.738ZM326.489 496.735C326.489 496.631 326.447 496.532 326.374 496.458C326.301 496.385 326.201 496.344 326.098 496.344C325.773 496.344 325.314 496.344 324.99 496.344C324.887 496.344 324.787 496.385 324.714 496.458C324.641 496.532 324.599 496.631 324.599 496.735C324.599 496.839 324.641 496.939 324.714 497.012C324.787 497.085 324.887 497.126 324.99 497.126C325.314 497.126 325.773 497.126 326.098 497.126C326.201 497.126 326.301 497.085 326.374 497.012C326.447 496.939 326.489 496.839 326.489 496.735ZM275.019 487.22L259.718 491.311L260.109 492.764L260.489 494.217L264.099 493.245C264.122 493.245 264.133 493.234 264.144 493.234L278.775 489.311L278.003 486.416L275.019 487.22ZM209.645 468.689V491.568C209.645 491.791 209.69 492.004 209.769 492.205C209.847 492.406 209.97 492.585 210.126 492.742C210.283 492.898 210.461 493.01 210.662 493.099C210.852 493.178 211.065 493.222 211.288 493.222H216.218L213.11 481.621L209.645 468.689ZM331.529 342.536H211.289C211.076 342.536 210.853 342.581 210.663 342.659H210.641C210.451 342.749 210.272 342.86 210.127 343.017C209.97 343.173 209.847 343.352 209.769 343.553C209.69 343.743 209.646 343.956 209.646 344.179V422.886L210.831 424.06C210.898 424.127 210.965 424.183 211.02 424.238L216.486 427.815L216.631 427.793V351.612C216.631 351.388 216.799 351.209 217.022 351.209H325.807C326.019 351.209 326.198 351.388 326.198 351.612V470.791C326.198 471.014 326.02 471.193 325.807 471.193H271.141L275.198 486.349L278.171 485.555C278.383 485.499 278.596 485.622 278.652 485.834L279.635 489.49C279.691 489.702 279.568 489.914 279.356 489.97L267.24 493.223H331.529C331.753 493.223 331.965 493.178 332.167 493.1L332.178 493.088C332.367 493.01 332.546 492.887 332.703 492.742C332.848 492.585 332.971 492.395 333.06 492.206C333.139 492.005 333.184 491.792 333.184 491.568V344.179C333.184 343.956 333.139 343.743 333.06 343.553L333.049 343.531C332.971 343.341 332.848 343.162 332.703 343.017C332.546 342.86 332.356 342.738 332.167 342.659C331.965 342.581 331.753 342.536 331.529 342.536ZM248.463 462.777L256.152 491.457L267.787 488.338L274.437 486.561L270.246 470.914C270.246 470.914 270.235 470.903 270.235 470.891L266.748 457.881L248.463 462.777ZM324.264 487.477H309.019C308.483 487.477 308.002 487.254 307.644 486.908C307.298 486.55 307.085 486.07 307.085 485.544V479.844C307.085 479.319 307.298 478.827 307.644 478.48C308.002 478.134 308.482 477.91 309.019 477.91H324.264C324.789 477.91 325.281 478.134 325.628 478.48C325.975 478.827 326.198 479.318 326.198 479.844V485.544C326.198 486.069 325.975 486.55 325.628 486.908C325.281 487.254 324.789 487.477 324.264 487.477ZM324.264 478.703H309.019C308.706 478.703 308.415 478.827 308.203 479.039C308.002 479.24 307.868 479.531 307.868 479.844V485.543C307.868 485.856 308.002 486.136 308.203 486.348C308.415 486.56 308.695 486.683 309.019 486.683H324.264C324.577 486.683 324.868 486.56 325.069 486.348C325.281 486.136 325.404 485.856 325.404 485.543V479.844C325.404 479.531 325.281 479.24 325.069 479.039C324.868 478.827 324.577 478.703 324.264 478.703ZM231.452 467.337L228.479 468.131L232.334 482.538L238.269 480.951L234.414 466.543L231.452 467.337ZM236.023 441.954L230.099 443.541C230.088 443.541 230.088 443.541 230.077 443.552L226.824 444.413L230.233 457.154C230.289 457.367 230.166 457.591 229.953 457.646L222.242 459.714C222.03 459.77 221.817 459.635 221.761 459.435L218.341 446.693L217.134 447.017C217.111 447.017 217.1 447.028 217.089 447.028L216.597 447.151L209.366 449.096C209.355 449.107 209.332 449.107 209.321 449.107L209.142 449.152L214.977 470.936L220.454 469.471L241.857 463.727L238.94 452.841L236.023 441.954ZM315.021 382.236H227.796V433.415L230.278 442.68L234.692 441.496L252.006 436.857C252.039 436.846 252.073 436.846 252.106 436.846H252.117C252.285 436.846 252.453 436.958 252.497 437.136L258.432 459.289L266.927 457.009C266.96 456.998 266.994 456.998 267.028 456.998C267.206 456.998 267.363 457.121 267.408 457.289L270.928 470.399H315.021V382.236ZM325.404 373.932L315.804 382.035V470.399H325.404V373.932ZM236.783 441.753L242.617 463.526L257.673 459.491L251.839 437.718L236.783 441.753ZM222.588 445.553L219.101 446.492L222.421 458.842L229.373 456.987L226.065 444.625L222.588 445.553ZM209.97 431.291C209.958 431.168 209.947 431.034 209.947 430.9L209.645 430.732V448.202L213.267 447.23L216.631 446.336V436.455L213.859 437.17C213.468 437.282 213.066 437.271 212.697 437.17C212.619 437.148 212.552 437.126 212.474 437.103C212.463 437.103 212.463 437.092 212.451 437.092C212.094 436.958 211.77 436.734 211.524 436.444L211.267 436.511C211.233 436.522 211.2 436.522 211.166 436.522C210.999 436.522 210.831 436.399 210.786 436.232L209.803 432.565C209.78 432.476 209.791 432.398 209.814 432.32C209.858 432.219 209.948 432.13 210.06 432.096C210.048 432.029 210.037 431.973 210.026 431.906C210.015 431.839 210.015 431.761 210.004 431.694C209.992 431.559 209.981 431.426 209.97 431.291ZM208.852 448.068V430.263L206.773 429.056L204.359 431.459C204.437 431.649 204.504 431.839 204.56 432.04L208.852 448.068ZM225.774 443.552L223.248 434.097C223.192 433.929 223.091 433.784 222.969 433.683C222.913 433.649 222.868 433.616 222.812 433.593C222.733 433.929 222.577 434.231 222.365 434.499C222.219 434.688 222.03 434.845 221.828 434.979C221.627 435.113 221.392 435.214 221.146 435.281L217.413 436.253V446.122L218.464 445.843C218.475 445.832 218.497 445.832 218.52 445.821L225.852 443.865L225.774 443.552ZM223.348 429.47H223.337C223.035 429.47 222.745 429.515 222.443 429.593L222.097 429.682H222.085L222.801 432.476C222.823 432.577 222.846 432.677 222.857 432.778C223.069 432.834 223.27 432.935 223.438 433.057C223.706 433.259 223.907 433.549 224.008 433.895L226.623 443.664L229.518 442.882L226.601 431.984C226.355 431.09 225.774 430.375 225.036 429.939L225.014 429.927C224.511 429.637 223.941 429.481 223.348 429.47ZM151.939 400.488V440.747H180.318V429.078C171.164 419.936 161.987 410.804 152.856 401.617C152.498 401.259 152.196 400.879 151.939 400.488ZM189.471 435.717C189.617 436.052 189.874 436.309 190.187 436.466C190.5 436.623 190.869 436.667 191.226 436.578L197.128 435.125C197.463 435.035 197.754 434.846 197.955 434.589C198.156 434.321 198.279 433.996 198.279 433.65V429.615C198.279 429.425 198.234 429.235 198.156 429.056C198.077 428.888 197.966 428.732 197.809 428.609C197.664 428.486 197.496 428.397 197.306 428.34C197.128 428.296 196.938 428.285 196.737 428.318L194.043 428.765C193.92 428.788 193.797 428.754 193.696 428.665L189.404 424.596L185.403 428.609L188.108 430.487C188.22 430.554 188.298 430.677 188.298 430.822C188.298 431.37 188.365 431.918 188.465 432.454V432.476C188.532 432.812 188.611 433.136 188.688 433.46C188.744 433.672 188.812 433.885 188.867 434.086C188.889 434.131 188.901 434.175 188.912 434.22C189.091 434.767 189.281 435.248 189.459 435.673L189.471 435.717ZM216.486 428.609C216.452 428.62 216.419 428.62 216.385 428.62C216.318 428.62 216.251 428.609 216.184 428.564L210.786 425.032L207.343 428.474L210.506 430.319C210.641 430.386 210.729 430.52 210.729 430.676C210.729 430.888 210.741 431.112 210.752 431.325C210.757 431.349 210.759 431.374 210.762 431.398L210.764 431.419C210.767 431.443 210.769 431.468 210.774 431.492C210.797 431.749 210.842 432.006 210.886 432.264V432.286C210.886 432.297 210.898 432.308 210.898 432.331C210.987 432.811 211.11 433.281 211.233 433.739C211.434 434.399 211.669 435.013 211.881 435.528V435.55C211.904 435.584 211.926 435.628 211.937 435.662C211.948 435.673 211.948 435.684 211.958 435.695L211.96 435.697C211.965 435.701 211.967 435.706 211.969 435.71L211.972 435.714C211.974 435.719 211.977 435.724 211.982 435.729C212.138 435.986 212.362 436.187 212.619 436.31C212.932 436.467 213.301 436.512 213.658 436.411L220.957 434.522C221.281 434.433 221.549 434.254 221.751 434.008C221.952 433.762 222.075 433.45 222.086 433.114C222.086 433.103 222.086 433.081 222.097 433.058C222.097 432.935 222.075 432.801 222.041 432.667L221.236 429.526C221.225 429.515 221.225 429.515 221.225 429.504L221.113 429.068C221.024 428.732 220.823 428.464 220.555 428.286C220.354 428.162 220.096 428.084 219.839 428.084C219.761 428.073 219.694 428.084 219.616 428.096L217.112 428.509C217.09 428.521 217.068 428.52 217.034 428.52L216.498 428.61H216.486V428.609ZM219.827 427.29C220.253 427.29 220.643 427.413 220.979 427.625C221.415 427.905 221.739 428.34 221.873 428.877L221.884 428.922L222.242 428.832C222.611 428.731 222.968 428.687 223.337 428.687H223.348C224.086 428.687 224.802 428.888 225.416 429.245L225.427 429.257C226.087 429.648 226.646 430.207 227.014 430.911V382.035L217.414 373.932V427.659L219.493 427.312C219.604 427.29 219.716 427.29 219.827 427.29ZM181.003 395.651C181.01 395.694 181.018 395.737 181.025 395.781L181.041 395.885C181.05 395.938 181.058 395.989 181.067 396.04C181.089 396.241 181.1 396.431 181.1 396.632V409.91L200.157 428.967C200.458 428.933 200.771 428.944 201.073 428.978C201.129 428.989 201.174 428.989 201.219 429.001C201.263 429.012 201.297 429.012 201.33 429.023C201.677 429.09 202.024 429.213 202.348 429.358C202.437 429.403 202.526 429.459 202.616 429.503L202.638 429.515C203.108 429.794 203.521 430.163 203.845 430.588C203.89 430.644 203.923 430.689 203.957 430.745L210.182 424.519L209.266 423.614L208.998 423.345C208.976 423.323 208.953 423.312 208.931 423.278L181 395.627L181.003 395.651ZM160.623 393.804L160.612 393.793L160.601 393.782L160.59 393.771L160.579 393.759C160.456 393.648 160.333 393.536 160.21 393.435C160.098 393.346 159.998 393.268 159.886 393.201C159.751 393.111 159.607 393.022 159.461 392.933C159.338 392.866 159.215 392.81 159.081 392.754C159.059 392.743 159.036 392.731 159.014 392.72C159.014 392.72 159.003 392.72 159.003 392.709C158.388 392.452 157.751 392.329 157.102 392.34C155.84 392.352 154.554 392.877 153.492 393.939L153.47 393.95C153.381 394.062 153.28 394.151 153.191 394.252L153.168 394.274V394.285C153.067 394.397 152.967 394.52 152.878 394.631C152.218 395.503 151.849 396.453 151.816 397.426C151.805 397.772 151.838 398.118 151.916 398.465C151.916 398.47 151.919 398.475 151.921 398.48L151.923 398.484C151.925 398.489 151.928 398.494 151.928 398.499C151.961 398.633 151.995 398.778 152.04 398.912C152.285 399.65 152.744 400.376 153.415 401.058L182.62 430.263L189.851 423.032L160.668 393.849L160.657 393.838L160.646 393.827L160.623 393.804ZM198.915 428.833C198.96 428.956 198.994 429.078 199.028 429.201L199.229 429.145L198.915 428.833ZM197.742 427.659L181.1 411.028V413.162L190.689 422.752C190.846 422.908 190.846 423.154 190.689 423.31L189.963 424.037L194.098 427.96L196.613 427.535C196.914 427.491 197.227 427.502 197.518 427.58C197.597 427.603 197.675 427.636 197.742 427.659ZM176.26 392.586H171.175C171.051 393.725 170.37 394.754 169.32 395.503C168.213 396.308 166.682 396.811 165.005 396.811H164.748L180.318 412.38V396.621C180.318 396.073 180.206 395.559 180.005 395.078C179.971 395 179.937 394.922 179.904 394.855C179.825 394.699 179.737 394.542 179.647 394.408C179.49 394.173 179.323 393.972 179.122 393.771L179.11 393.759C178.384 393.033 177.378 392.586 176.26 392.586ZM180.318 366.7H160.456V373.082C160.456 373.294 160.278 373.473 160.054 373.473H157.494C157.125 373.473 156.779 373.574 156.466 373.742C156.331 373.809 156.209 373.898 156.097 373.999C156.086 374.01 156.086 374.01 156.074 374.021C156.06 374.031 156.047 374.043 156.035 374.055L156.025 374.065C156.012 374.077 156 374.089 155.985 374.099C155.594 374.49 155.359 375.027 155.359 375.619C155.359 376.211 155.594 376.748 155.985 377.139C156.377 377.53 156.913 377.765 157.505 377.765H160.053C160.277 377.765 160.456 377.944 160.456 378.156V392.195C160.456 392.329 160.389 392.44 160.288 392.519C160.299 392.519 160.299 392.53 160.311 392.53L160.333 392.541C160.434 392.608 160.534 392.686 160.623 392.765C160.836 392.921 161.037 393.1 161.227 393.29L163.887 395.95C163.954 395.961 164.022 395.972 164.077 395.972C164.178 395.983 164.267 395.995 164.368 396.006C164.557 396.017 164.77 396.028 164.982 396.028H165.005C166.514 396.028 167.877 395.581 168.861 394.866L168.872 394.854C168.894 394.843 168.928 394.821 168.95 394.799L168.962 394.787H168.973C169.498 394.374 169.911 393.882 170.157 393.346C170.258 393.1 170.336 392.843 170.369 392.585H169.833V392.574C169.654 392.552 169.509 392.384 169.509 392.194V386.259H166.189C165.966 386.259 165.787 386.08 165.787 385.868C165.787 385.644 165.966 385.465 166.189 385.465H174.025C175.757 385.465 177.333 384.761 178.473 383.621C179.613 382.481 180.317 380.916 180.317 379.173V366.7H180.318ZM166 381.934C165.363 381.297 164.972 380.425 164.972 379.453C164.972 379.241 165.15 379.062 165.363 379.062H171.588C171.801 379.062 171.98 379.24 171.98 379.453C171.98 380.425 171.588 381.297 170.951 381.934C170.314 382.571 169.443 382.963 168.47 382.963C167.509 382.963 166.637 382.571 166 381.934ZM171.164 379.855H165.788C165.877 380.448 166.157 380.973 166.559 381.375C167.05 381.867 167.721 382.169 168.47 382.169C169.23 382.169 169.901 381.868 170.393 381.375C170.794 380.973 171.074 380.448 171.164 379.855ZM324.734 373.473H218.106L227.562 381.453H315.267L324.734 373.473ZM159.662 378.559H158.131C158.366 378.917 158.612 379.252 158.892 379.554C159.126 379.822 159.383 380.068 159.663 380.281V378.559H159.662ZM159.662 366.7H155.359C155.382 367.673 155.505 370.277 156.086 373.048C156.499 372.814 156.98 372.68 157.494 372.68H159.662V366.7ZM325.404 364.655H217.414V372.68H325.404V364.655ZM276.729 370.467H266.089C265.877 370.467 265.698 370.288 265.698 370.065V367.27C265.698 367.058 265.876 366.879 266.089 366.879H276.729C276.953 366.879 277.12 367.058 277.12 367.27V370.065C277.12 370.288 276.953 370.467 276.729 370.467ZM276.338 367.661H266.491V369.673H276.338V367.661ZM178.149 357.881H178.138C168.347 357.881 162.524 363.928 160.869 365.918H180.585C181.603 365.213 189.951 359.245 181.423 358.105C180.284 357.96 179.2 357.881 178.149 357.881ZM177.389 357.11C176.294 355.613 174.931 354.372 173.388 353.489C171.722 352.539 169.834 352.003 167.833 352.003C164.401 352.003 161.283 353.601 159.025 356.172C156.835 358.675 155.449 362.107 155.359 365.918H159.852C160.769 364.722 166.715 357.435 177.389 357.11ZM325.404 358.161H217.414V363.862H325.404V358.161ZM325.404 352.003H217.414V357.379H325.404V352.003ZM244.629 499.28L240.963 500.264V500.265L238.459 500.935C237.956 501.75 237.61 502.656 237.453 503.606C237.297 504.567 237.33 505.584 237.599 506.579L237.61 506.624C238.124 508.524 239.365 510.044 240.952 510.961C242.539 511.877 244.472 512.19 246.384 511.687L246.418 511.676C248.318 511.162 249.837 509.921 250.754 508.334C251.67 506.747 251.983 504.802 251.469 502.891C251.201 501.874 250.732 500.98 250.117 500.219C249.502 499.471 248.742 498.856 247.904 498.409L245.39 499.082L245.848 500.779C246.463 500.98 247.033 501.326 247.502 501.796C248.005 502.299 248.385 502.936 248.575 503.662C248.877 504.78 248.698 505.909 248.162 506.836C247.625 507.764 246.731 508.491 245.624 508.781C244.506 509.083 243.378 508.905 242.45 508.368C241.523 507.831 240.796 506.937 240.505 505.83C240.304 505.093 240.315 504.356 240.505 503.673C240.673 503.037 240.986 502.444 241.422 501.963L240.964 500.265L243.182 499.672L244.193 499.402L244.63 499.284L244.629 499.28L244.69 499.267L245.389 499.079L244.629 499.28Z" fill="#0984E3"/>
            </svg>
            