<svg width="107" height="19" viewBox="0 0 107 19" fill="none" xmlns="http://www.w3.org/2000/svg">
  <path d="M11.156 15.072V18H0.824V0.587999H4.424V15.072H11.156ZM29.648 9.288C29.648 10.56 29.432 11.74 29 12.828C28.576 13.916 27.972 14.856 27.188 15.648C26.412 16.44 25.476 17.064 24.38 17.52C23.284 17.968 22.068 18.192 20.732 18.192C19.396 18.192 18.18 17.968 17.084 17.52C15.988 17.064 15.048 16.44 14.264 15.648C13.48 14.856 12.872 13.916 12.44 12.828C12.016 11.74 11.804 10.56 11.804 9.288C11.804 8.016 12.016 6.84 12.44 5.76C12.872 4.672 13.48 3.732 14.264 2.94C15.048 2.148 15.988 1.528 17.084 1.08C18.18 0.623999 19.396 0.395998 20.732 0.395998C22.068 0.395998 23.284 0.623999 24.38 1.08C25.476 1.528 26.412 2.152 27.188 2.952C27.972 3.744 28.576 4.684 29 5.772C29.432 6.852 29.648 8.024 29.648 9.288ZM25.964 9.288C25.964 8.376 25.844 7.56 25.604 6.84C25.364 6.112 25.016 5.496 24.56 4.992C24.112 4.48 23.564 4.092 22.916 3.828C22.276 3.556 21.548 3.42 20.732 3.42C19.916 3.42 19.184 3.556 18.536 3.828C17.888 4.092 17.336 4.48 16.88 4.992C16.432 5.496 16.088 6.112 15.848 6.84C15.608 7.56 15.488 8.376 15.488 9.288C15.488 10.208 15.608 11.032 15.848 11.76C16.088 12.48 16.432 13.092 16.88 13.596C17.336 14.1 17.888 14.488 18.536 14.76C19.184 15.024 19.916 15.156 20.732 15.156C21.548 15.156 22.276 15.024 22.916 14.76C23.564 14.488 24.112 14.1 24.56 13.596C25.016 13.092 25.364 12.48 25.604 11.76C25.844 11.032 25.964 10.208 25.964 9.288ZM40.7491 9.132H46.7251V16.32C45.8371 16.968 44.8891 17.444 43.8811 17.748C42.8811 18.044 41.8211 18.192 40.7011 18.192C39.2691 18.192 37.9731 17.972 36.8131 17.532C35.6531 17.084 34.6611 16.464 33.8371 15.672C33.0131 14.88 32.3771 13.94 31.9291 12.852C31.4811 11.764 31.2571 10.576 31.2571 9.288C31.2571 7.984 31.4691 6.788 31.8931 5.7C32.3251 4.612 32.9371 3.676 33.7291 2.892C34.5211 2.108 35.4771 1.496 36.5971 1.056C37.7251 0.615999 38.9851 0.395998 40.3771 0.395998C41.0971 0.395998 41.7691 0.455999 42.3931 0.576C43.0171 0.687999 43.5931 0.847999 44.1211 1.056C44.6491 1.256 45.1331 1.496 45.5731 1.776C46.0131 2.056 46.4131 2.364 46.7731 2.7L45.7291 4.308C45.5691 4.564 45.3611 4.72 45.1051 4.776C44.8491 4.832 44.5691 4.768 44.2651 4.584C43.9771 4.408 43.6931 4.252 43.4131 4.116C43.1411 3.972 42.8491 3.848 42.5371 3.744C42.2251 3.64 41.8851 3.56 41.5171 3.504C41.1491 3.448 40.7251 3.42 40.2451 3.42C39.4371 3.42 38.7051 3.56 38.0491 3.84C37.3931 4.12 36.8331 4.516 36.3691 5.028C35.9131 5.54 35.5611 6.156 35.3131 6.876C35.0651 7.596 34.9411 8.4 34.9411 9.288C34.9411 10.248 35.0771 11.108 35.3491 11.868C35.6211 12.62 36.0051 13.256 36.5011 13.776C36.9971 14.296 37.5891 14.692 38.2771 14.964C38.9731 15.236 39.7451 15.372 40.5931 15.372C41.1691 15.372 41.6811 15.316 42.1291 15.204C42.5851 15.084 43.0291 14.924 43.4611 14.724V11.796H41.4931C41.2611 11.796 41.0771 11.736 40.9411 11.616C40.8131 11.488 40.7491 11.328 40.7491 11.136V9.132ZM53.2918 18H49.6678V0.587999H53.2918V18ZM66.3654 3.924C66.2534 4.108 66.1374 4.244 66.0174 4.332C65.9054 4.412 65.7574 4.452 65.5734 4.452C65.3974 4.452 65.2054 4.392 64.9974 4.272C64.7974 4.144 64.5614 4.008 64.2894 3.864C64.0174 3.72 63.7054 3.588 63.3534 3.468C63.0014 3.34 62.5894 3.276 62.1174 3.276C61.2854 3.276 60.6614 3.464 60.2454 3.84C59.8294 4.208 59.6214 4.692 59.6214 5.292C59.6214 5.676 59.7334 5.996 59.9574 6.252C60.1894 6.5 60.4894 6.716 60.8574 6.9C61.2334 7.084 61.6574 7.248 62.1294 7.392C62.6014 7.536 63.0854 7.696 63.5814 7.872C64.0774 8.04 64.5614 8.24 65.0334 8.472C65.5054 8.704 65.9254 8.996 66.2934 9.348C66.6694 9.7 66.9694 10.132 67.1934 10.644C67.4254 11.148 67.5414 11.764 67.5414 12.492C67.5414 13.284 67.4014 14.028 67.1214 14.724C66.8494 15.412 66.4534 16.016 65.9334 16.536C65.4134 17.048 64.7694 17.452 64.0014 17.748C63.2414 18.044 62.3774 18.192 61.4094 18.192C60.8574 18.192 60.3054 18.136 59.7534 18.024C59.2094 17.912 58.6814 17.756 58.1694 17.556C57.6654 17.356 57.1894 17.116 56.7414 16.836C56.2934 16.556 55.9014 16.244 55.5654 15.9L56.6214 14.196C56.7094 14.068 56.8254 13.964 56.9694 13.884C57.1134 13.796 57.2654 13.752 57.4254 13.752C57.6414 13.752 57.8694 13.832 58.1094 13.992C58.3494 14.152 58.6254 14.328 58.9374 14.52C59.2494 14.712 59.6094 14.888 60.0174 15.048C60.4334 15.208 60.9294 15.288 61.5054 15.288C62.3454 15.288 62.9934 15.096 63.4494 14.712C63.9134 14.328 64.1454 13.756 64.1454 12.996C64.1454 12.556 64.0294 12.2 63.7974 11.928C63.5734 11.656 63.2774 11.428 62.9094 11.244C62.5414 11.06 62.1214 10.904 61.6494 10.776C61.1774 10.64 60.6934 10.492 60.1974 10.332C59.7014 10.172 59.2174 9.98 58.7454 9.756C58.2734 9.532 57.8534 9.236 57.4854 8.868C57.1174 8.5 56.8174 8.044 56.5854 7.5C56.3614 6.956 56.2494 6.28 56.2494 5.472C56.2494 4.824 56.3774 4.196 56.6334 3.588C56.8894 2.98 57.2654 2.44 57.7614 1.968C58.2574 1.496 58.8654 1.116 59.5854 0.827999C60.3134 0.539999 61.1454 0.395998 62.0814 0.395998C63.1294 0.395998 64.0974 0.559999 64.9854 0.887999C65.8814 1.208 66.6374 1.656 67.2534 2.232L66.3654 3.924ZM82.4761 3.492H77.3881V18H73.7761V3.492H68.6881V0.587999H82.4761V3.492ZM88.2605 18H84.6365V0.587999H88.2605V18ZM106.41 18H102.81C102.57 18 102.374 17.94 102.222 17.82C102.078 17.7 101.962 17.56 101.874 17.4L98.1061 10.992C98.0661 11.08 98.0261 11.168 97.9861 11.256C97.9541 11.336 97.9141 11.412 97.8661 11.484L94.2901 17.4C94.1861 17.552 94.0621 17.692 93.9181 17.82C93.7821 17.94 93.6061 18 93.3901 18H90.0301L95.7301 9.036L90.2461 0.587999H93.8461C94.0861 0.587999 94.2621 0.619999 94.3741 0.683999C94.4861 0.747999 94.5861 0.851999 94.6741 0.995999L98.4181 7.152C98.4581 7.056 98.5021 6.96 98.5501 6.864C98.5981 6.76 98.6541 6.656 98.7181 6.552L102.078 1.056C102.174 0.895999 102.278 0.779999 102.39 0.707999C102.51 0.627999 102.654 0.587999 102.822 0.587999H106.266L100.734 8.88L106.41 18Z" fill="#FC4E17"/>
</svg>