<svg width="108" height="19" viewBox="0 0 108 19" fill="none" xmlns="http://www.w3.org/2000/svg">
<path d="M11.228 14.76V18H0.692V0.516H4.748V14.76H11.228ZM30.0395 9.252C30.0395 10.516 29.8195 11.692 29.3795 12.78C28.9475 13.868 28.3355 14.816 27.5435 15.624C26.7515 16.424 25.7955 17.052 24.6755 17.508C23.5635 17.964 22.3275 18.192 20.9675 18.192C19.6075 18.192 18.3675 17.964 17.2475 17.508C16.1275 17.052 15.1675 16.424 14.3675 15.624C13.5755 14.816 12.9595 13.868 12.5195 12.78C12.0875 11.692 11.8715 10.516 11.8715 9.252C11.8715 7.988 12.0875 6.812 12.5195 5.724C12.9595 4.636 13.5755 3.692 14.3675 2.892C15.1675 2.092 16.1275 1.464 17.2475 1.008C18.3675 0.552 19.6075 0.323999 20.9675 0.323999C22.3275 0.323999 23.5635 0.555999 24.6755 1.02C25.7955 1.476 26.7515 2.104 27.5435 2.904C28.3355 3.704 28.9475 4.648 29.3795 5.736C29.8195 6.824 30.0395 7.996 30.0395 9.252ZM25.8875 9.252C25.8875 8.388 25.7755 7.612 25.5515 6.924C25.3275 6.228 25.0035 5.64 24.5795 5.16C24.1635 4.68 23.6515 4.312 23.0435 4.056C22.4355 3.8 21.7435 3.672 20.9675 3.672C20.1835 3.672 19.4835 3.8 18.8675 4.056C18.2595 4.312 17.7435 4.68 17.3195 5.16C16.9035 5.64 16.5835 6.228 16.3595 6.924C16.1355 7.612 16.0235 8.388 16.0235 9.252C16.0235 10.124 16.1355 10.908 16.3595 11.604C16.5835 12.292 16.9035 12.876 17.3195 13.356C17.7435 13.836 18.2595 14.204 18.8675 14.46C19.4835 14.708 20.1835 14.832 20.9675 14.832C21.7435 14.832 22.4355 14.708 23.0435 14.46C23.6515 14.204 24.1635 13.836 24.5795 13.356C25.0035 12.876 25.3275 12.292 25.5515 11.604C25.7755 10.908 25.8875 10.124 25.8875 9.252ZM40.8264 8.94H47.0424V16.32C46.1464 16.976 45.1904 17.452 44.1744 17.748C43.1664 18.044 42.1104 18.192 41.0064 18.192C39.5664 18.192 38.2544 17.968 37.0704 17.52C35.8944 17.064 34.8864 16.44 34.0464 15.648C33.2064 14.848 32.5584 13.904 32.1024 12.816C31.6464 11.72 31.4184 10.532 31.4184 9.252C31.4184 7.948 31.6344 6.752 32.0664 5.664C32.4984 4.568 33.1144 3.624 33.9144 2.832C34.7224 2.04 35.6944 1.424 36.8304 0.983999C37.9744 0.543999 39.2504 0.323999 40.6584 0.323999C41.3864 0.323999 42.0704 0.383999 42.7104 0.503999C43.3504 0.623999 43.9384 0.787999 44.4744 0.995999C45.0184 1.204 45.5144 1.452 45.9624 1.74C46.4104 2.028 46.8104 2.34 47.1624 2.676L45.9864 4.464C45.8024 4.744 45.5624 4.916 45.2664 4.98C44.9784 5.044 44.6664 4.972 44.3304 4.764C44.0104 4.572 43.7064 4.408 43.4184 4.272C43.1384 4.128 42.8504 4.012 42.5544 3.924C42.2584 3.836 41.9464 3.772 41.6184 3.732C41.2904 3.692 40.9224 3.672 40.5144 3.672C39.7544 3.672 39.0704 3.808 38.4624 4.08C37.8544 4.344 37.3344 4.72 36.9024 5.208C36.4784 5.696 36.1504 6.284 35.9184 6.972C35.6864 7.652 35.5704 8.412 35.5704 9.252C35.5704 10.18 35.6984 11.004 35.9544 11.724C36.2104 12.444 36.5704 13.052 37.0344 13.548C37.5064 14.044 38.0664 14.424 38.7144 14.688C39.3704 14.944 40.0944 15.072 40.8864 15.072C41.3744 15.072 41.8144 15.024 42.2064 14.928C42.6064 14.832 42.9944 14.704 43.3704 14.544V11.892H41.6424C41.3864 11.892 41.1864 11.824 41.0424 11.688C40.8984 11.552 40.8264 11.38 40.8264 11.172V8.94ZM53.8501 18H49.7701V0.516H53.8501V18ZM66.8833 4.068C66.7633 4.26 66.6353 4.404 66.4993 4.5C66.3713 4.596 66.2033 4.644 65.9953 4.644C65.8113 4.644 65.6113 4.588 65.3953 4.476C65.1873 4.356 64.9473 4.224 64.6753 4.08C64.4113 3.936 64.1073 3.808 63.7633 3.696C63.4193 3.576 63.0273 3.516 62.5872 3.516C61.8273 3.516 61.2593 3.68 60.8833 4.008C60.5153 4.328 60.3313 4.764 60.3313 5.316C60.3313 5.668 60.4433 5.96 60.6673 6.192C60.8913 6.424 61.1833 6.624 61.5433 6.792C61.9113 6.96 62.3273 7.116 62.7913 7.26C63.2633 7.396 63.7433 7.552 64.2313 7.728C64.7193 7.896 65.1953 8.096 65.6593 8.328C66.1313 8.56 66.5473 8.856 66.9073 9.216C67.2753 9.576 67.5713 10.016 67.7953 10.536C68.0193 11.048 68.1313 11.668 68.1313 12.396C68.1313 13.204 67.9913 13.96 67.7113 14.664C67.4313 15.368 67.0233 15.984 66.4873 16.512C65.9593 17.032 65.3033 17.444 64.5193 17.748C63.7433 18.044 62.8593 18.192 61.8672 18.192C61.3233 18.192 60.7673 18.136 60.1993 18.024C59.6393 17.912 59.0953 17.756 58.5673 17.556C58.0393 17.348 57.5433 17.104 57.0793 16.824C56.6153 16.544 56.2113 16.232 55.8673 15.888L57.0673 13.992C57.1633 13.856 57.2873 13.744 57.4393 13.656C57.5993 13.56 57.7713 13.512 57.9553 13.512C58.1953 13.512 58.4353 13.588 58.6753 13.74C58.9233 13.892 59.1993 14.06 59.5033 14.244C59.8153 14.428 60.1713 14.596 60.5713 14.748C60.9713 14.9 61.4433 14.976 61.9873 14.976C62.7233 14.976 63.2953 14.816 63.7033 14.496C64.1113 14.168 64.3153 13.652 64.3153 12.948C64.3153 12.54 64.2033 12.208 63.9793 11.952C63.7553 11.696 63.4593 11.484 63.0913 11.316C62.7313 11.148 62.3193 11 61.8553 10.872C61.3913 10.744 60.9153 10.604 60.4273 10.452C59.9393 10.292 59.4633 10.1 58.9993 9.876C58.5353 9.644 58.1193 9.344 57.7513 8.976C57.3913 8.6 57.0993 8.136 56.8753 7.584C56.6513 7.024 56.5393 6.336 56.5393 5.52C56.5393 4.864 56.6713 4.224 56.9353 3.6C57.1993 2.976 57.5873 2.42 58.0993 1.932C58.6113 1.444 59.2393 1.056 59.9833 0.767999C60.7273 0.471999 61.5793 0.323999 62.5393 0.323999C63.0753 0.323999 63.5953 0.368 64.0993 0.456C64.6113 0.536 65.0953 0.659999 65.5513 0.827999C66.0073 0.987999 66.4313 1.184 66.8233 1.416C67.2233 1.64 67.5793 1.896 67.8913 2.184L66.8833 4.068ZM83.0763 3.732H78.1563V18H74.1003V3.732H69.1803V0.516H83.0763V3.732ZM89.2173 18H85.1373V0.516H89.2173V18ZM107.59 18H103.534C103.27 18 103.054 17.936 102.886 17.808C102.726 17.68 102.598 17.528 102.502 17.352L98.9984 11.232C98.9344 11.408 98.8624 11.56 98.7824 11.688L95.5184 17.352C95.4064 17.512 95.2744 17.66 95.1224 17.796C94.9704 17.932 94.7744 18 94.5344 18H90.7424L96.3704 9L90.9584 0.516H95.0144C95.2784 0.516 95.4704 0.552 95.5904 0.623999C95.7184 0.687999 95.8304 0.799999 95.9264 0.959999L99.4064 6.852C99.4464 6.748 99.4904 6.648 99.5384 6.552C99.5944 6.456 99.6544 6.356 99.7184 6.252L102.766 1.02C102.878 0.843999 102.994 0.716 103.114 0.636C103.242 0.556 103.398 0.516 103.582 0.516H107.47L101.986 8.832L107.59 18Z" fill="white"/>
</svg>
